<svg width="1545" height="773" viewBox="0 0 1545 773" fill="none" xmlns="http://www.w3.org/2000/svg">
<path d="M251.131 136C276.331 136 295.931 143.7 309.931 159.1C324.131 174.5 331.231 196.5 331.231 225.1V349H292.231V226.6C292.231 208 287.731 194 278.731 184.6C269.931 175 257.631 170.2 241.831 170.2C224.631 170.2 210.931 175.3 200.731 185.5C190.731 195.5 185.731 210.5 185.731 230.5V349H146.731V139H184.531V165.4C199.131 145.8 221.331 136 251.131 136ZM562.494 139V284.8C562.494 315.8 553.994 339.6 536.994 356.2C520.194 372.8 496.894 381.1 467.094 381.1C449.494 381.1 433.494 378.5 419.094 373.3C404.694 368.3 392.494 361.1 382.494 351.7L398.394 321.7C416.994 338.5 439.694 346.9 466.494 346.9C504.494 346.9 523.494 326.8 523.494 286.6V270.7C509.294 288.7 488.694 297.7 461.694 297.7C435.094 297.7 414.494 290.1 399.894 274.9C385.294 259.7 377.994 237.9 377.994 209.5V139H416.994V207.7C416.994 226.1 421.394 240.1 430.194 249.7C439.194 259.1 451.694 263.8 467.694 263.8C484.694 263.8 498.194 258.8 508.194 248.8C518.394 238.6 523.494 223.6 523.494 203.8V139H562.494Z" fill="#4A98D3"/>
<g clip-path="url(#clip0_111_690)">
<path d="M656.971 124.704C700.648 119.389 748.257 123.75 791.512 129.883C840.947 136.97 879.287 159.866 922.823 181.264C966.359 202.661 1016.5 218.879 1067.05 220.787C1112.28 222.559 1155.25 219.016 1200.05 228.965C1258.33 242.048 1313.81 266.717 1363.1 299.562C1368.44 303.106 1379.53 308.966 1385.57 303.378C1391.33 298.199 1386.84 289.886 1381.36 286.342C1293.44 227.738 1193.03 193.393 1085.87 195.983C1034.33 197.21 986.583 188.214 939.957 166.136C893.331 144.057 855.272 119.525 805.837 109.167C777.047 103.17 747.414 101.262 718.203 99.7632C693.345 98.4003 667.645 96.9012 642.787 99.8995C622.002 102.353 643.068 126.339 656.971 124.704Z" fill="#4A98D3"/>
<path d="M1395.26 337.723C1395.26 348.762 1392.31 359.938 1385.43 368.933C1379.25 377.11 1370.68 383.243 1361.42 387.605C1342.6 396.6 1321.39 399.871 1300.75 403.142C1296.81 403.687 1299.9 409.683 1301.03 411.183C1303.27 414.045 1306.93 417.043 1310.86 416.362C1342.74 411.455 1383.18 405.458 1401.02 375.748C1406.64 366.344 1408.88 355.713 1408.88 344.81C1408.88 339.222 1394.98 329.546 1394.98 337.587L1395.26 337.723Z" fill="#4A98D3"/>
<path d="M1203.7 481.371C1260.25 481.371 1306.08 436.889 1306.08 382.017C1306.08 327.145 1260.25 282.662 1203.7 282.662C1147.16 282.662 1101.32 327.145 1101.32 382.017C1101.32 436.889 1147.16 481.371 1203.7 481.371Z" stroke="#4A98D3" stroke-width="25" stroke-miterlimit="10"/>
<path d="M1082.78 403.55C952.877 400.143 823.111 396.6 693.204 393.192C674.807 392.647 656.55 392.238 638.152 391.693C632.815 391.557 617.788 392.238 614.839 397.69C611.89 403.142 616.244 404.232 622.423 404.368C752.33 407.775 882.096 411.319 1012 414.726C1030.4 415.271 1048.66 415.68 1067.05 416.225C1072.39 416.361 1087.42 415.68 1090.37 410.229C1093.32 404.777 1088.96 403.687 1082.78 403.55Z" fill="#4A98D3"/>
<path d="M1218.59 268.761C1281.79 277.483 1266.76 309.648 1266.76 309.648C1261.42 306.104 1255.67 302.833 1249.2 299.835C1206.79 280.073 1163.68 287.433 1141.35 293.157C1057.36 284.025 973.382 275.03 889.399 265.899C889.399 265.899 1159.46 260.584 1218.59 268.761Z" fill="#4A98D3"/>
<path d="M674.245 172.541C674.245 172.541 683.233 157.413 668.347 144.057C702.052 140.65 749.521 137.379 803.028 151.008C862.013 166.136 911.307 214.382 987.004 238.914L696.154 227.738" stroke="#4A98D3" stroke-width="8" stroke-miterlimit="10"/>
<path d="M701.35 362.664C701.35 362.664 887.854 382.017 905.83 375.748C905.83 375.748 914.256 353.124 915.38 335.951C916.644 317.689 913.414 302.697 910.605 293.157C909.2 295.337 908.077 301.879 902.459 302.969C897.404 303.923 722.837 304.605 722.837 304.605C904.987 311.01 903.021 303.651 902.459 322.322C901.898 340.994 893.331 339.631 888.837 339.631C882.376 339.631 726.769 337.042 726.769 337.042C726.769 337.314 847.407 342.357 855.272 342.766C899.791 344.537 899.229 340.721 897.684 358.303C895.999 377.11 897.684 367.979 701.209 362.936L701.35 362.664Z" fill="#4A98D3"/>
</g>
<path d="M373.228 477L281.728 687H243.328L151.528 477H193.828L263.728 639L334.228 477H373.228ZM486.645 690C465.245 690 445.945 685.4 428.745 676.2C411.545 666.8 398.045 653.9 388.245 637.5C378.445 620.9 373.545 602.4 373.545 582C373.545 561.6 378.445 543.2 388.245 526.8C398.045 510.2 411.545 497.3 428.745 488.1C445.945 478.7 465.245 474 486.645 474C508.045 474 527.345 478.7 544.545 488.1C561.745 497.3 575.245 510.1 585.045 526.5C594.845 542.9 599.745 561.4 599.745 582C599.745 602.6 594.845 621.1 585.045 637.5C575.245 653.9 561.745 666.8 544.545 676.2C527.345 685.4 508.045 690 486.645 690ZM486.645 655.8C500.645 655.8 513.245 652.7 524.445 646.5C535.645 640.1 544.445 631.3 550.845 620.1C557.245 608.7 560.445 596 560.445 582C560.445 568 557.245 555.4 550.845 544.2C544.445 532.8 535.645 524 524.445 517.8C513.245 511.4 500.645 508.2 486.645 508.2C472.645 508.2 460.045 511.4 448.845 517.8C437.645 524 428.845 532.8 422.445 544.2C416.045 555.4 412.845 568 412.845 582C412.845 596 416.045 608.7 422.445 620.1C428.845 631.3 437.645 640.1 448.845 646.5C460.045 652.7 472.645 655.8 486.645 655.8ZM779.984 579.6H816.884V687H784.784V674.7C769.784 684.9 750.984 690 728.384 690C708.984 690 691.184 685.8 674.984 677.4C658.784 669 645.784 656.8 635.984 640.8C626.384 624.8 621.584 605.7 621.584 583.5C621.584 562.5 626.484 543.7 636.284 527.1C646.084 510.3 659.584 497.3 676.784 488.1C694.184 478.7 713.684 474 735.284 474C752.884 474 768.884 476.9 783.284 482.7C797.684 488.5 809.784 497 819.584 508.2L794.984 532.2C778.984 516.2 759.684 508.2 737.084 508.2C722.284 508.2 709.084 511.4 697.484 517.8C686.084 524 677.084 532.8 670.484 544.2C664.084 555.6 660.884 568.6 660.884 583.2C660.884 598.6 664.084 611.9 670.484 623.1C677.084 634.1 685.784 642.5 696.584 648.3C707.384 653.9 719.184 656.7 731.984 656.7C740.984 656.7 749.584 655.3 757.784 652.5C766.184 649.7 773.584 645.6 779.984 640.2V579.6ZM968.222 474C993.422 474 1013.02 481.7 1027.02 497.1C1041.22 512.5 1048.32 534.5 1048.32 563.1V687H1009.32V564.6C1009.32 546 1004.82 532 995.822 522.6C987.022 513 974.722 508.2 958.922 508.2C941.722 508.2 928.022 513.3 917.822 523.5C907.822 533.5 902.822 548.5 902.822 568.5V687H863.822V477H901.622V503.4C916.222 483.8 938.422 474 968.222 474Z" fill="white"/>
<defs>
<clipPath id="clip0_111_690">
<rect width="795.309" height="495" fill="white" transform="translate(613.856)"/>
</clipPath>
</defs>
</svg>
